<svg xmlns="http://www.w3.org/2000/svg" width="1396" height="958" fill="none" viewBox="0 0 1396 958"><path fill="#F39100" d="M668.2 838.7a361 361 0 100-722 361 361 0 000 722z"/><path fill="#E5007C" d="M527.7 957.5h-123a32 32 0 01-32-32V751.2a32 32 0 0132-32h123a32 32 0 0132 32v174.3a32 32 0 01-32 32zM812 957.5H689a32 32 0 01-32-32V697.3a32 32 0 0132-32h123a32 32 0 0132 32v228.2a32 32 0 01-32 32z"/><path fill="#941680" d="M1096.3 957.5h-123a32 32 0 01-32-32V579a32 32 0 0132-32h123a32 32 0 0132 32v346.5a32 32 0 01-32 32z"/><path fill="#E5007C" d="M1010.5 405a193.5 193.5 0 100-387 193.5 193.5 0 000 387z"/><path fill="#941680" d="M826 153.1a193.5 193.5 0 00195.7 251.6A360.4 360.4 0 00826 153.1z"/><path fill="#F39100" d="M155.6 849.5a92.1 92.1 0 100-184.2 92.1 92.1 0 000 184.2z"/><path fill="#E5007C" d="M54.2 822a54.2 54.2 0 100-108.4 54.2 54.2 0 000 108.4z"/><path fill="#941680" d="M74.5 717.6l-1.7-.6-2.6 5.8a92.2 92.2 0 0012.5 91 54 54 0 00-8.2-96.2z"/><path fill="#F8C6C0" d="M826 224.5s41-19.9 47.7-10.5c6.7 9.4-.9 18.9-15.8 22.5-20 4.8-28.5-2.3-28.5-2.3l-3.4-9.7z"/><path fill="#4B074A" d="M693.3 87.2c19.3-5 33.5 40.2 36.4 56.2l14.9 81.2s85.1-11 88.8-5.7a36.8 36.8 0 014 21.7c-1.2 3.4-93.7 24.5-105.8 23.5-12.1-1-38.2-68.2-42.4-89-4.2-20.8-27-80 4.1-87.9z"/><path fill="#1D1D1B" d="M764.4 617.7s-11.5 36-8.1 44.1c3.4 8.1 90.5 16.3 90.6 8 .1-8.3-30.8-16.9-39.6-24-8.9-7.1-12.5-29.6-12.5-29.6l-30.4 1.5zM394.9 581.3s-34.1 16.2-37.7 24.3c-3.6 8.1 50 77.1 56.1 71.6 6.1-5.6-8.7-34-9.6-45.3-.9-11.3 13.1-29.4 13.1-29.4l-21.9-21.2z"/><path fill="#4B074A" d="M387 582.8c-.6 2.6 18.1 28 22.9 29.3 4.8 1.3 151.3-100.7 164.3-111.1 13-10.4 98.6-129.4 101.6-139.9s-88.2-57-88.2-57-24.3 101.3-31.3 116.5C535.2 466.4 387.9 578.5 387 582.8z"/><path fill="#941680" d="M606.7 245.9s-22.7 42.3-24.8 70c-3 40.4 83.7 76.8 111.9 89.4 28.2 12.6 63 28.7 63 35.2 0 6.5-.7 180.7 3.5 184.2 4.2 3.6 35.9 2.5 38.2.5 2.3-2 15.7-204.5 11.5-217.9-4.2-13.4-53.1-48.5-68.7-62.4a754.6 754.6 0 00-52.8-39.4s2.5-19.3 5.1-28.8c2.6-9.5-86.9-30.8-86.9-30.8z"/><path fill="#E6057B" d="M697.7 278.6c5.9-4.8 24.2-106.1 7.2-180.2-9-39.5-51.5-31.7-74 5.7-22.2 37-32.8 104.3-36 148.5 22.5 12.9 82.3 42.8 102.8 26z"/><path fill="#F8C6C0" d="M677.2 86.8a34.4 34.4 0 100-68.8 34.4 34.4 0 000 68.8z"/><path fill="#4B074A" d="M516 248.5c-4.4 5.3 19.9 81.3 22.5 82.4 2.6 1.1 106.6-23.6 109.5-26.7 2.9-3.1-10-79.9-15.4-82.4-5.4-2.6-112.6 21.9-116.6 26.7z"/><path fill="#181716" d="M690.7 0s24.4 16.4 19.4 28.6c-5 12.1-27.7 12.2-33.4 14.8-10.2 4.7-5.9 14.3-16 16.8-3.6.9-7-4.2-8.8.9-1.8 5.1 6.1 14 4.2 16.6-3.9 5.3-26.8-19.6-14-44.4 14.3-27.8 39.1-18.7 43.1-23.4 4-4.6 3.1-9.3 5.5-9.9z"/><path fill="#E6057B" d="M669.2 10.4c-5.8 1.6-9.3 3.5-14.5 11.2a41.7 41.7 0 00-4.4 20.1c-5.5 2.2-8.7 8.7-7.4 15.5 1.4 7.6 8.1 12.8 14.8 11.5 6.7-1.3 11-8.5 9.5-16.1-1-5.1-4.2-9-8.3-10.8a42.6 42.6 0 016.6-21.9c6.1-7.8 11.9-7.5 15.5-8.4-2.7-1.7-6.3-2.6-11.8-1.1z"/><path fill="#F8C6C0" d="M582.9 269.9s31.5 40 24.4 49.8c-7.1 9.8-22.5 5.9-30.3-10.5-4.1-8.5-2.4-33.1-2.4-33.1l8.3-6.2z"/><path fill="#941680" d="M662.6 96.6c11 20.8-29.4 44.5-42.8 52.8-13.4 8.3-45.8 26.4-45.8 26.4s19.4 98.9 17.1 104.1c-2.3 5.2-14.2 8.9-20.4 4.8-6.2-4-37.6-106-28.1-122.6 9.5-16.6 100.2-102.9 120-65.5z"/><path fill="#C00216" d="M316.2 204.7c3.1 5.4 5.6 9.5 7.9 13.8a18.2 18.2 0 0029.8 3.5c2.3-2.5 4.2-5.6 6-8.5 6-9.8 11.6-11.5 21.9-6.4 8.2 4 10.4 9 7.8 17.8-1 3.2-2.3 6.2-3.2 9.4a18.2 18.2 0 0016.2 23.6c3.2.3 6.5-.5 9.8-.8l2-.5c14.4-4.9 20.9 2.4 22.3 17.5.5 5.1-2.8 8.5-7.1 10.8-3.2 1.7-6.5 3-9.7 4.7-12.5 6.3-13.2 25.9-1.5 32.7l9 5.4c6.3 4.1 7.9 9 5.4 16-.4 1.3-1 2.5-1.6 3.7-4.5 9-10.2 11.1-19.6 7.5l-6-2.2a18.6 18.6 0 00-20.1 4.7c-5.7 5.3-6.5 11.8-4.9 19 .8 3.7 1.8 7.4 2.2 11.1.5 4.8-.8 8.9-5.7 10.9-3.4 1.4-6.7 3.2-10.2 4-5.4 1.2-9.8-.8-12.6-5.7a144 144 0 01-5.2-10.4c-4.7-9.8-18.7-13.8-27.5-7.3-3.2 2.3-5.5 5.9-7.9 9.1-1.8 2.3-2.9 5-4.7 7.3a11 11 0 01-12 3.8c-2.2-.6-4.4-1.5-6.5-2.6-8.5-4.7-10.4-9.5-7.4-18.8 1.1-3.5 2.5-7 3.1-10.6a18.5 18.5 0 00-21.4-21.4c-3.8.6-7.6 1.6-11.3 2.6-6 1.5-13.7-1.1-15.6-9-.4-1.8-1.3-3.5-1.6-5.3-1.3-7-.1-12.4 7.5-15.7 2.7-1.1 5.2-2.6 7.9-3.7 11.3-4.7 15-22.5 4.8-30.7-3.4-2.7-7.1-5.1-10.8-7.4-6.8-4.2-8.8-9.6-5.9-17.1 1.7-4.3 4-8.2 8-10.8 2.5-1.7 5.1-2.4 8-1.4l10.5 3.5c7.9 2.6 14.9 1.5 20.9-4.5 4-4 5.5-8.9 5-14.3a60 60 0 00-1.8-9.4c-3.5-12.9 5.2-22.9 18.6-21.2 3.1.6 6.3.9 7.2 3.3zm-3.6 64.4c-3.3 3-7.2 5.6-9.7 9.1a41.5 41.5 0 009.8 57.3 40.7 40.7 0 0062.6-23.2c4.5-18.4-.7-31.8-15.2-43.3-14.4-11.4-32.3-10.4-47.5.1z"/><path fill="#E94C05" d="M334.9 53.6l7.5 9.5c6 7.8 17.3 7.6 22.8-.6 1.5-2.2 2.5-4.7 3.6-7.1 3.5-8 7.5-9.9 15.8-7.3 6.6 2.1 8.9 5.6 7.8 12.6-.4 2.5-1 4.9-1.3 7.4-1.2 9 5.7 16.6 14.8 16 2.5-.2 4.9-1.1 7.3-1.7.5-.1 1-.4 1.4-.6 10.3-5.3 16-.5 18.7 10.7.9 3.8-1.2 6.7-4.1 8.9l-6.8 4.6c-8.7 6.2-7.1 21 2.4 24.8l7.4 3.1c5.2 2.4 6.9 5.9 5.8 11.5l-.8 3c-2.4 7.3-6.5 9.5-13.9 7.8l-4.8-1c-6.1-1.1-10.9 1-14.7 5.7-3.7 4.6-3.6 9.6-1.6 14.9 1 2.7 2.1 5.4 2.9 8.1.9 3.5.3 6.8-3.1 8.9-2.4 1.4-4.7 3.1-7.3 4.1-3.9 1.5-7.5.4-10.1-2.9-1.8-2.3-3.4-4.8-5.1-7.3-4.6-6.9-15.6-8.4-21.6-2.5-2.1 2.1-3.5 5.1-5 7.7-1.1 1.9-1.7 4.1-2.8 6a8.3 8.3 0 01-8.6 4.2c-1.7-.2-3.5-.6-5.2-1.2-6.9-2.6-8.9-6.1-7.6-13.3.5-2.8 1.1-5.5 1.2-8.3.3-9.8-9.2-16.8-18.5-13.8-2.8.9-5.5 2.1-8.3 3.2-4.4 1.8-10.4.7-12.8-5-.5-1.3-1.3-2.5-1.8-3.8-1.7-5.1-1.5-9.3 3.9-12.6l5.5-3.7c8-4.8 8.8-18.6.3-23.7a73.6 73.6 0 00-8.9-4.4c-5.6-2.4-7.7-6.3-6.3-12.2.8-3.5 2.1-6.6 4.8-9a6.8 6.8 0 015.9-1.9l8.3 1.4c6.2 1.1 11.4-.5 15.3-5.7a13 13 0 002.2-11.4c-.6-2.4-1.4-4.7-2.4-6.9-4.1-9.3 1.4-17.8 11.7-18 2.7.1 5.2.1 6.1 1.8zm4.4 48.9c-2.1 2.6-4.8 5-6.3 7.9a31.5 31.5 0 0013.7 42.1 31 31 0 0044.6-24.3c1.4-14.3-4.1-23.9-16.2-31-12.2-7-25.5-4.3-35.8 5.3z"/><path fill="#FFEAFC" d="M896.8 508l-30.1-12.5a2.3 2.3 0 01-1.4-2.1v-2.9c0-.9.6-1.8 1.4-2.1l30.1-12.5c1.5-.6 3.2.5 3.2 2.1v2.5c0 .9-.6 1.8-1.4 2.1l-17.7 7.2a2.3 2.3 0 000 4.3l17.7 7.2c.9.4 1.4 1.2 1.4 2.1v2.5c-.1 1.7-1.7 2.8-3.2 2.1zM936.5 471.9l-18.7 44.3c-.4.9-1.2 1.4-2.1 1.4h-3c-1.6 0-2.8-1.7-2.1-3.2l18.6-44.3c.4-.9 1.2-1.4 2.1-1.4h3.1c1.6 0 2.8 1.7 2.1 3.2zM982.2 495.5L952.1 508c-1.5.6-3.2-.5-3.2-2.1v-2.5c0-.9.6-1.8 1.4-2.1l17.7-7.2a2.3 2.3 0 000-4.3l-17.7-7.2a2.3 2.3 0 01-1.4-2.1V478c0-1.6 1.7-2.7 3.2-2.1l30.1 12.5c.9.4 1.4 1.2 1.4 2.1v2.9c0 .9-.5 1.8-1.4 2.1z"/><path fill="#4B074A" d="M429.3 783.6c7.2 2.4 14.4 4.5 21.5 7.1 7.7 2.8 15.6 4.6 23.5 6.7 37.5 10 75.5 16.6 114.2 19.5a497 497 0 00111.7-3.7c32-4.8 62.9-13.2 92.7-25.9 37.6-16 71.1-38.2 100.5-66.6 14.5-14 27.8-29.2 39.7-45.5.8-1 .5-2.5-.6-3.2L899 648.6c-1.4-1-1.3-3.2.3-4l135.1-63.2c1.7-.8 3.5.6 3.2 2.4-8.1 53.2-15.3 94.7-22 134.5a2.3 2.3 0 01-3.6 1.5l-30.3-21.1c-.9-.7-2.2-.5-3 .3C966.3 712.7 889 808 777 832.4a480.9 480.9 0 01-122.5 11 540 540 0 01-140.3-25.7c-19-6-37.7-12.8-56.1-20.7-9.5-4.1-18.9-8.6-28.4-12.9l-.9-.6c.4.2.4.2.5.1z"/><path fill="#FFEAFC" d="M1073.6 108.5v49.3c0 1.3-1.1 2.4-2.4 2.4h-49.3a2.4 2.4 0 00-2.4 2.5 54.2 54.2 0 1056.7-56.7 2.5 2.5 0 00-2.6 2.5z"/><path fill="#4B074A" d="M1058.6 93.3a54.2 54.2 0 00-51.6 51.6c-.1 1.4 1 2.5 2.4 2.5h49.3c1.3 0 2.4-1.1 2.4-2.4V95.7c0-1.4-1.1-2.5-2.5-2.4z"/><path fill="#941680" d="M136.4 528.2a50.5 50.5 0 100-101 50.5 50.5 0 000 101z"/><path fill="#E6087E" d="M136.4 477.7L86 476.4v1.3a50.4 50.4 0 0049.1 50.4l1.3-50.4z"/><path fill="#FFEAFC" d="M136.4 508.6a30.9 30.9 0 100-61.8 30.9 30.9 0 000 61.8z"/><path fill="#4B074A" d="M1329.1 667.7a66.8 66.8 0 100-133.6 66.8 66.8 0 000 133.6z"/><path fill="#941680" d="M1329.1 600.9l66.4-7.8-.2-1.7a66.8 66.8 0 00-73.8-56.9l7.6 66.4z"/><path fill="#F5F5F5" d="M1329.1 632.5a31.6 31.6 0 100-63.2 31.6 31.6 0 000 63.2z"/></svg>